<svg width="20" height="34" viewBox="0 0 20 34" fill="none" xmlns="http://www.w3.org/2000/svg">
<path d="M0.914861 32.7675C1.77236 33.625 3.15486 33.625 4.01236 32.7675L18.5549 18.225C18.7171 18.0631 18.8458 17.8708 18.9336 17.6591C19.0214 17.4474 19.0666 17.2204 19.0666 16.9912C19.0666 16.762 19.0214 16.5351 18.9336 16.3234C18.8458 16.1117 18.7171 15.9194 18.5549 15.7575L4.01236 1.21499C3.15486 0.357494 1.77236 0.357494 0.914861 1.21499C0.0573609 2.07249 0.0573609 3.45499 0.914861 4.31249L13.5849 17L0.89736 29.6875C0.0573605 30.5275 0.0573609 31.9275 0.914861 32.7675Z" fill="#D11149"/>
</svg>
