<svg width="30" height="31" viewBox="0 0 30 31" fill="none" xmlns="http://www.w3.org/2000/svg">
<path d="M19.375 17.6592H18.3875L18.0375 17.3217C19.3048 15.8517 20.0014 13.9751 20 12.0342C20 10.4272 19.5235 8.85632 18.6307 7.52018C17.7379 6.18403 16.469 5.14262 14.9843 4.52766C13.4997 3.9127 11.866 3.7518 10.2899 4.0653C8.7138 4.37881 7.26606 5.15264 6.12976 6.28894C4.99346 7.42524 4.21963 8.87298 3.90612 10.4491C3.59262 12.0252 3.75352 13.6588 4.36848 15.1435C4.98344 16.6281 6.02485 17.8971 7.361 18.7899C8.69714 19.6827 10.268 20.1592 11.875 20.1592C13.8875 20.1592 15.7375 19.4217 17.1625 18.1967L17.5 18.5467V19.5342L23.75 25.7717L25.6125 23.9092L19.375 17.6592V17.6592ZM11.875 17.6592C8.7625 17.6592 6.25 15.1467 6.25 12.0342C6.25 8.92168 8.7625 6.40918 11.875 6.40918C14.9875 6.40918 17.5 8.92168 17.5 12.0342C17.5 15.1467 14.9875 17.6592 11.875 17.6592Z" fill="#D11149"/>
</svg>
