<svg width="42" height="42" viewBox="0 0 42 42" fill="none" xmlns="http://www.w3.org/2000/svg">
<path d="M29.0849 5.23247C28.8817 5.02876 28.6403 4.86713 28.3745 4.75686C28.1088 4.64658 27.8239 4.58981 27.5361 4.58981C27.2484 4.58981 26.9635 4.64658 26.6977 4.75686C26.432 4.86713 26.1906 5.02876 25.9874 5.23247L11.4449 19.775C11.2827 19.9369 11.1539 20.1292 11.0661 20.3409C10.9783 20.5526 10.9331 20.7795 10.9331 21.0087C10.9331 21.2379 10.9783 21.4649 11.0661 21.6766C11.1539 21.8883 11.2827 22.0806 11.4449 22.2425L25.9874 36.785C26.8449 37.6425 28.2274 37.6425 29.0849 36.785C29.9424 35.9275 29.9424 34.545 29.0849 33.6875L16.4149 21L29.1024 8.31247C29.9424 7.47247 29.9424 6.07247 29.0849 5.23247Z" fill="#D11149"/>
</svg>
